<svg width="144" height="144" viewBox="0 0 144 144" fill="none" xmlns="http://www.w3.org/2000/svg">
<g clip-path="url(#clip0_107_2596)">
<path d="M52.1006 81C53.3005 81 54.5008 81.4999 55.3008 82.2998H55.2012L79.6006 106.7C80.4006 107.6 80.9004 108.7 80.9004 109.9V141C80.9004 142.7 79.6004 144 77.9004 144H65.9004C64.2006 144 62.9004 142.7 62.9004 141V100.1C62.9001 97.6999 60.1003 96.5003 58.4004 98.2002L39.9004 116.7C38.8004 117.9 36.9011 117.9 35.7012 116.7L27.2012 108.2C26.0012 107.1 26.0012 105.2 27.2012 104L48.9004 82.2998C49.8003 81.4998 50.9007 81.0001 52.1006 81ZM141 63.0996C142.7 63.0996 144 64.3998 144 66.0996V78.0996C144 79.7996 142.7 81.0996 141 81.0996H100.1C97.6999 81.0999 96.5004 83.8997 98.2002 85.5996L116.7 104.1C117.9 105.2 117.9 107.1 116.7 108.3L108.2 116.8C107.1 118 105.2 118 104 116.8L82.2998 95.0996C81.5001 94.1998 81.0001 93.1001 81 91.9004C81 90.7005 81.4999 89.5002 82.2998 88.7002L106.7 64.2998C107.6 63.4999 108.7 63 109.9 63H141V63.0996ZM35.7998 27.2002C36.8998 26.0002 38.8 26.0002 40 27.2002L61.7002 48.8994C62.5002 49.7994 62.9999 50.8997 63 52.0996C63 53.2996 62.5001 54.4998 61.7002 55.2998L37.2998 79.7002V79.5996C36.3998 80.3996 35.2996 80.8994 34.0996 80.8994H3C1.3 80.8994 0 79.5994 0 77.8994V65.8994C0.000200292 64.1996 1.30013 62.8994 3 62.8994H43.9004C46.3001 62.8991 47.4997 60.0993 45.7998 58.3994L27.2998 39.8994C26.1002 38.7995 26.1002 36.9001 27.2998 35.7002L35.7998 27.2002ZM78.1016 0C79.8016 0 81.1016 1.3 81.1016 3V43.9004C81.1019 46.3001 83.9017 47.4997 85.6016 45.7998L104.102 27.2998C105.202 26.0999 107.102 26.0998 108.302 27.2998L116.802 35.7998C118.002 36.8998 118.002 38.8 116.802 40L95.1016 61.7002C94.2016 62.5001 93.1013 63 91.9014 63C90.7014 62.9999 89.5011 62.5002 88.7012 61.7002H88.8018L64.4014 37.2998C63.6015 36.3998 63.1016 35.2995 63.1016 34.0996V3C63.1016 1.3 64.4016 0 66.1016 0H78.1016Z" fill="#3B75BF"/>
</g>
<defs>
<clipPath id="clip0_107_2596">
<rect width="144" height="144" fill="white"/>
</clipPath>
</defs>
</svg>
