<svg width="777" height="144" viewBox="0 0 777 144" fill="none" xmlns="http://www.w3.org/2000/svg">
<g clip-path="url(#clip0_107_2602)">
<path d="M52.1006 81C53.3005 81 54.4008 81.3999 55.3008 82.2998L79.7012 106.7C80.501 107.6 81.001 108.701 81.001 109.9V141C81.001 142.1 80.4008 143.1 79.501 143.6C79.001 143.9 78.5009 144 78.001 144H66.001C65.401 144 64.901 143.8 64.501 143.6C63.601 143.1 63.001 142.1 63.001 141V100.1C63.0007 97.6999 60.2009 96.5003 58.501 98.2002L39.9004 116.8C39.8006 116.8 39.7012 116.9 39.7012 116.9C38.6013 117.7 37.1009 117.7 36.001 116.9C35.9032 116.9 35.7097 116.709 35.7012 116.7L27.2012 108.2C27.1013 108.1 26.9009 108 26.9004 107.9C26.1004 106.9 26.1004 105.4 26.9004 104.3C27.0004 104.2 27.1012 104 27.2012 104L48.9004 82.2998C49.8003 81.4998 50.9007 81.0001 52.1006 81ZM141 63C142.1 63 143.1 63.6001 143.6 64.5H143.7C144 65 144.1 65.5 144.1 66V78C144.1 78.6 143.9 79.1 143.7 79.5C143.2 80.4 142.2 81 141.1 81H100.2C97.8002 81 96.6 83.8 98.2998 85.5L116.8 104C116.8 104.1 117 104.2 117 104.3C117.8 105.4 117.8 106.9 117 108C116.9 108.1 116.9 108.2 116.9 108.2L108.2 116.9C108.1 116.9 108 117 108 117C106.9 117.8 105.4 117.8 104.3 117C104.2 117 104 116.8 104 116.8L82.2998 95.0996C81.5001 94.1998 81.0001 93.1001 81 91.9004C81 90.7005 81.3999 89.6002 82.2998 88.7002L106.7 64.2998C107.6 63.4999 108.7 63 109.9 63H141ZM36.0996 26.8994C37.0996 26.0994 38.6002 26.0995 39.7002 26.8994C39.8002 26.9994 40 27.1002 40 27.2002L61.7002 48.8994C62.5002 49.7994 62.9999 50.8997 63 52.0996C63 53.2996 62.6001 54.3998 61.7002 55.2998L54 63L52.0996 64.8994L45 72L37.2998 79.7002V79.5996C36.3998 80.3996 35.2996 80.8994 34.0996 80.8994H3C1.9 80.8994 0.900391 80.2994 0.400391 79.3994C0.100445 78.8995 0 78.3994 0 77.8994V65.8994C8.72888e-05 65.2996 0.200434 64.7993 0.400391 64.3994C0.900477 63.4997 1.90019 62.8994 3 62.8994H43.9004C46.3001 62.8991 47.4997 60.0993 45.7998 58.3994L27.2998 39.8994C27.1997 39.7995 27 39.6995 27 39.5996C26.2001 38.5996 26.2001 37.0999 27 36C27.0999 35.9001 27.1999 35.7005 27.2998 35.7002L35.7998 27.2002C35.8997 27.1003 35.9997 26.8999 36.0996 26.8994ZM78.1016 0C78.7016 0 79.2016 0.200391 79.6016 0.400391C80.5015 0.900421 81.1016 1.90007 81.1016 3V43.7998C81.1016 46.1998 83.9016 47.4001 85.6016 45.7002L104.102 27.2002C104.201 27.1003 104.301 26.9007 104.401 26.9004C105.501 26.1004 106.902 26.1004 108.002 26.9004L116.802 35.7002C116.802 35.8001 117.002 35.9001 117.002 36C117.802 37.1 117.802 38.6003 117.002 39.7002C116.902 39.8002 116.901 39.9004 116.901 39.9004L95.1016 61.7002C94.2016 62.5001 93.1013 63 91.9014 63C90.7014 63 89.6011 62.6001 88.7012 61.7002H88.8018L64.4014 37.2998C63.6015 36.3998 63.1016 35.2995 63.1016 34.0996V3C63.1016 1.90007 63.7017 0.900421 64.6016 0.400391C65.1016 0.100391 65.6016 0 66.1016 0H78.1016Z" fill="#3B75BF"/>
<path d="M303.001 25.5C311.501 25.5 319.401 27.4996 326.701 31.5996C333.901 35.6996 339.7 41.3004 343.9 48.4004C348.1 55.5004 350.201 63.4 350.201 72C350.201 80.6 348.1 88.4996 343.9 95.5996C339.7 102.7 334.001 108.3 326.701 112.4C319.501 116.5 311.601 118.5 303.001 118.5C294.401 118.5 286.401 116.5 279.201 112.4C272.001 108.3 266.301 102.7 262.101 95.5996C257.901 88.4997 255.801 80.5998 255.801 72C255.801 63.4002 257.901 55.5003 262.101 48.4004C266.301 41.3004 272.001 35.6996 279.201 31.5996C286.401 27.4998 294.501 25.5 303.001 25.5ZM590.401 48.5C598.801 48.5 605.401 50.9002 610.401 55.7002C615.301 60.5002 617.802 67.4 617.802 76.5V117H604.401V109.5C602.201 112 599.601 114.1 596.401 115.6C592.501 117.5 587.702 118.5 583.002 118.5C578.302 118.5 574.201 117.7 570.701 116.1C567.101 114.5 564.402 112.3 562.502 109.3C560.602 106.3 559.602 104.9 559.602 99.0996C559.602 93.2998 561.802 88.7001 566.302 85.2002C570.802 81.7002 576.802 80 584.302 80H603.302V75.5996C603.302 70.9999 602.002 67.4999 599.502 65C597.002 62.5 592.601 61.2998 588.901 61.2998C585.202 61.2998 582.002 62.2 579.002 63.7998C576.002 65.3998 573.102 67.8999 570.302 71.2998L562.002 62.7998C565.402 58 569.602 54.3999 574.401 52C579.201 49.7001 584.501 48.5001 590.201 48.5H590.401ZM520.001 48.5C525.901 48.5 531.201 49.9001 535.9 52.5V52.2998C540.5 54.9997 544.2 58.6 546.9 63.2998C549.6 67.9997 550.9 73.2998 550.9 79.0996C550.9 82.0995 550.501 85.0997 549.801 88.0996H499.9C500.3 90.6996 501.101 93.1002 502.301 95.2002C504.101 98.6001 506.701 101.2 510.101 103C513.501 104.8 517.901 105.7 521.701 105.7C525.501 105.7 528.901 105 532.101 103.7C535.201 102.4 538.301 100.4 541.201 97.7998L548.001 107.6C544.401 111.1 540.301 113.7 535.801 115.6C531.301 117.5 528.001 118.4 521.301 118.4C514.601 118.4 508.501 116.8 503.001 113.8C497.501 110.8 493.101 106.6 490.001 101.3C486.901 95.9998 485.301 89.9 485.301 83.5C485.301 77.1 486.9 71.1998 489.9 65.7998C493 60.3998 497.1 56.1996 502.4 53.0996C507.7 49.9996 514.101 48.5 520.001 48.5ZM685.4 50H705.3V62.4004H685.4V93.9004C685.4 98.2004 686.5 101.2 688.7 102.9C690.9 104.6 694.2 105.5 698.7 105.5L698.5 105.4C700 105.4 701.5 105.301 702.8 105.301C704.1 105.301 705.7 105.101 707.4 104.801V116.9C703 117.9 703.2 118.4 695.5 118.4C687.8 118.4 681.8 116.5 677.4 112.7C673.1 108.9 670.9 103 670.9 95.1006V62.4004H660V50H670.9V32.4004H685.4V50ZM255.2 117H239.7L233.3 102H192.8L186.4 117H171L210.7 25.5H215.5L255.2 117ZM410.5 62.9004H455.7V27H470.2V117H455.7V75.7998H410.5V117H396V27H410.5V62.9004ZM649.401 117H635.102V14.7002H649.401V117ZM732.601 14.7002V56.9004C733.101 56.3005 733.701 55.7005 734.301 55.1006C738.901 50.8006 746.901 48.6006 752.001 48.6006C757.101 48.6006 761.501 49.7004 765.201 51.9004C768.901 54.1004 771.801 57.2003 773.801 61.2002V61.1006C775.801 65.1005 776.801 69.7002 776.801 75V116.9H762.501V77.1006C762.501 72.5007 761.201 68.8004 758.501 65.9004C755.801 63.0004 752.4 61.6006 747.9 61.6006C743.401 61.6007 739.8 63.1001 736.9 66C734 68.9 732.601 72.7003 732.601 77.2002V117H718.301V14.7002H732.601ZM586.102 90.5C582.202 90.5 579.201 91.1 577.201 92.5C575.201 93.7999 574.201 95.8 574.201 98.5996C574.201 101.4 575.302 103.6 577.502 105.1C579.702 106.6 582.701 107.4 585.901 107.4C589.101 107.4 592.002 106.8 594.602 105.4C597.301 104 599.401 102.1 600.901 99.7002C602.401 97.3002 603.201 94.5996 603.201 91.5996L603.302 91.7002V90.5H586.102ZM303.101 38.7002C297.001 38.7002 291.401 40.1001 286.501 43C281.601 45.9 277.801 49.9004 275.001 54.9004C272.201 60.0003 270.801 65.5005 270.801 71.9004C270.801 78.3001 272.201 83.9998 275.001 89.0996C277.701 94.1996 281.601 98.1 286.501 101C291.401 103.9 297.001 105.3 303.101 105.3C309.2 105.3 314.701 103.8 319.601 100.9C324.501 98.0004 328.401 94 331.201 89C334.001 83.9 335.4 78.2999 335.4 72C335.4 65.7001 334.001 60 331.201 55C328.401 50 324.501 45.9996 319.601 43.0996C314.701 40.1997 309.2 38.7002 303.101 38.7002ZM198.1 89.5996H228.2L213.2 52.2998L198.1 89.5996ZM519.501 60.5996C515.701 60.5996 512.301 61.6 509.301 63.5C506.201 65.4 503.801 68 502.101 71.5C501.301 73.3 500.601 75.1001 500.201 77L500.301 76.9004H536.801C536.701 74.0004 536.1 71.4002 534.9 69.2002C533.4 66.4002 531.301 64.2998 528.601 62.7998C525.901 61.3999 523.301 60.5996 519.501 60.5996Z" fill="white"/>
</g>
<defs>
<clipPath id="clip0_107_2602">
<rect width="776.8" height="144" fill="white"/>
</clipPath>
</defs>
</svg>
